<svg width="200" height="200" viewBox="0 0 200 200" fill="none" xmlns="http://www.w3.org/2000/svg">
<g clip-path="url(#clip0_1_5)">
<rect width="200" height="200" fill="#0093C1"/>
<path d="M23.474 143.1V157.788H28.01C33.086 157.788 38.432 156.546 38.432 150.336C38.432 144.018 32.384 143.1 27.416 143.1H23.474ZM18.938 162V121.284H25.634C33.032 121.284 39.242 123.984 39.242 132.3C39.242 135.594 38 138.402 35.246 140.238C40.106 141.426 42.968 145.8 42.968 150.66C42.968 158.76 36.434 162 28.388 162H18.938ZM23.474 125.496V139.212H25.202C30.332 139.212 34.706 138.618 34.706 132.3C34.706 126.144 30.818 125.496 25.256 125.496H23.474ZM54.1654 121.284V157.788H65.3974V162H49.6294V121.284H54.1654ZM93.3694 150.444H75.9814L71.0674 162H66.0994L84.8914 119.34L103.197 162H98.1754L93.3694 150.444ZM91.5874 146.232L84.7834 129.924L77.8174 146.232H91.5874ZM107.907 162V119.556L139.659 152.82V121.284H144.195V163.836L112.443 130.626V162H107.907ZM152.672 162V121.284H160.34C166.442 121.284 171.41 122.094 176.216 126.198C180.86 130.194 182.966 135.648 182.966 141.696C182.966 147.636 180.806 152.874 176.324 156.87C171.464 161.19 166.604 162 160.232 162H152.672ZM157.208 157.788H160.502C165.47 157.788 169.628 157.086 173.354 153.576C176.702 150.444 178.43 146.178 178.43 141.642C178.43 136.998 176.648 132.516 173.138 129.438C169.412 126.144 165.308 125.496 160.502 125.496H157.208V157.788Z" fill="white"/>
<path d="M28.9282 174.339V176.41C27.9022 175.498 26.4962 175.004 25.1472 175.004C21.9362 175.004 19.4852 177.683 19.4852 180.856C19.4852 183.991 21.9172 186.67 25.1092 186.67C26.5152 186.67 27.8642 186.138 28.9282 185.188V187.297C27.8262 187.943 26.4202 188.304 25.1662 188.304C21.0812 188.304 17.6992 185.055 17.6992 180.913C17.6992 176.676 21.1002 173.37 25.3182 173.37C26.5722 173.37 27.8452 173.674 28.9282 174.339ZM41.1667 173.37C45.2707 173.37 48.6717 176.733 48.6717 180.837C48.6717 185.093 45.3087 188.304 41.1667 188.304C37.0247 188.304 33.6617 185.093 33.6617 180.837C33.6617 176.733 37.0627 173.37 41.1667 173.37ZM41.1667 186.632C44.2637 186.632 46.8857 184.105 46.8857 180.837C46.8857 177.683 44.5297 175.042 41.1667 175.042C37.8037 175.042 35.4477 177.683 35.4477 180.837C35.4477 184.105 38.0697 186.632 41.1667 186.632ZM58.4021 181.768L62.9241 188H60.7581L56.5401 181.939H55.7991V188H54.0131V173.674H56.1791C57.4521 173.674 58.8201 173.693 59.9601 174.339C61.1571 175.042 61.8411 176.391 61.8411 177.759C61.8411 179.811 60.4731 181.521 58.4021 181.768ZM55.7991 175.27V180.457H56.3691C58.1931 180.457 60.1691 180.115 60.1691 177.835C60.1691 175.593 58.0411 175.27 56.2741 175.27H55.7991ZM69.7255 181.996V188H67.9395V173.674H69.9915C74.3995 173.674 75.7675 175.194 75.7675 177.816C75.7675 180.837 73.4685 181.996 70.7515 181.996H69.7255ZM69.7255 175.27V180.4H70.2955C72.1195 180.4 74.0955 180.058 74.0955 177.778C74.0955 175.536 71.9675 175.27 70.2005 175.27H69.7255ZM87.4547 173.37C91.5587 173.37 94.9597 176.733 94.9597 180.837C94.9597 185.093 91.5967 188.304 87.4547 188.304C83.3127 188.304 79.9497 185.093 79.9497 180.837C79.9497 176.733 83.3507 173.37 87.4547 173.37ZM87.4547 186.632C90.5517 186.632 93.1737 184.105 93.1737 180.837C93.1737 177.683 90.8177 175.042 87.4547 175.042C84.0917 175.042 81.7357 177.683 81.7357 180.837C81.7357 184.105 84.3577 186.632 87.4547 186.632ZM104.69 181.768L109.212 188H107.046L102.828 181.939H102.087V188H100.301V173.674H102.467C103.74 173.674 105.108 173.693 106.248 174.339C107.445 175.042 108.129 176.391 108.129 177.759C108.129 179.811 106.761 181.521 104.69 181.768ZM102.087 175.27V180.457H102.657C104.481 180.457 106.457 180.115 106.457 177.835C106.457 175.593 104.329 175.27 102.562 175.27H102.087ZM122.835 184.409H116.261L114.627 188H112.708L119.548 173.066L126.388 188H124.469L122.835 184.409ZM122.094 182.775L119.548 176.98L117.002 182.775H122.094ZM133.532 175.308V188H131.746V175.308H128.345V173.674H136.933V175.308H133.532ZM143.679 173.674V188H141.893V173.674H143.679ZM156.474 173.37C160.578 173.37 163.979 176.733 163.979 180.837C163.979 185.093 160.616 188.304 156.474 188.304C152.332 188.304 148.969 185.093 148.969 180.837C148.969 176.733 152.37 173.37 156.474 173.37ZM156.474 186.632C159.571 186.632 162.193 184.105 162.193 180.837C162.193 177.683 159.837 175.042 156.474 175.042C153.111 175.042 150.755 177.683 150.755 180.837C150.755 184.105 153.377 186.632 156.474 186.632ZM169.15 188V172.99L179.904 184.257V173.674H181.69V188.589L170.936 177.322V188H169.15Z" fill="white"/>
<mask id="mask0_1_5" style="mask-type:alpha" maskUnits="userSpaceOnUse" x="0" y="0" width="200" height="200">
<rect width="200" height="200" transform="matrix(-1 0 0 1 200 0)" fill="#D9D9D9"/>
</mask>
<g mask="url(#mask0_1_5)">
<path d="M51.5 -30C51.5 43.0826 114.977 102.5 193.5 102.5C272.023 102.5 335.5 43.0826 335.5 -30C335.5 -103.083 272.023 -162.5 193.5 -162.5C114.977 -162.5 51.5 -103.083 51.5 -30Z" stroke="white" stroke-width="3"/>
</g>
</g>
<defs>
<clipPath id="clip0_1_5">
<rect width="200" height="200" fill="white"/>
</clipPath>
</defs>
</svg>
